<svg xmlns="http://www.w3.org/2000/svg" xmlns:svg="http://www.w3.org/2000/svg" id="svg184" x="0" y="0" enable-background="new 0 0 64 64" version="1.1" viewBox="0 0 64 64" xml:space="preserve"><metadata id="metadata188"/><defs id="defs126"><linearGradient id="photonGradient" x1="6" x2="26" y1="24" y2="24" gradientTransform="scale(2,0.5)" gradientUnits="userSpaceOnUse"><stop id="stop119" offset="12%" stop-color="#0a84ff"/><stop id="stop121" offset="42%" stop-color="#9400ff"/><stop id="stop123" offset="88%" stop-color="#ff9400"/></linearGradient></defs><style id="style128" type="text/css">.st1{opacity:.2}.st2{fill:#737373}.st3{fill:#eee}.st4{fill:url(#photonGradient)}.st5{fill:#ffe900}.st6{fill:#30e60b}.st7{fill:#ff0039}.st8{fill:#4f5d73}</style><g id="Layer_1" transform="matrix(1.5988081,0,0,1.5988081,-19.161859,-19.161859)"><g id="g132" class="st1" opacity=".2"><path id="path130" fill="#737373" d="m 52,48 c 0,2.2 -1.8,4 -4,4 H 16 c -2.2,0 -4,-1.8 -4,-4 V 18 c 0,-2.2 1.8,-4 4,-4 h 32 c 2.2,0 4,1.8 4,4 z" class="st2"/></g><g id="g136"><path id="path134" fill="#eee" d="M 12,21.5 V 46 c 0,2.2 1.8,4 4,4 h 32 c 2.2,0 4,-1.8 4,-4 V 21.5 Z" class="st3"/></g><g id="g140" class="st1" opacity=".2"><path id="path138" fill="#737373" d="m 52,18 c 0,-2.2 -1.8,-4 -4,-4 H 16 c -2.2,0 -4,1.8 -4,4 v 6 h 40 z" class="st2"/></g><g id="g144"><path id="path142" fill="url(#photonGradient)" d="m 52,16 c 0,-2.2 -1.8,-4 -4,-4 H 16 c -2.2,0 -4,1.8 -4,4 v 6 h 40 z" class="st4"/></g><g id="g148"><circle id="circle146" cx="23" cy="17" r="2" fill="#ffe900" class="st5"/></g><g id="g152"><circle id="circle150" cx="29" cy="17" r="2" fill="#30e60b" class="st6"/></g><g id="g156"><circle id="circle154" cx="17" cy="17" r="2" fill="#ff0039" class="st7"/></g><g id="g160"><rect id="rect158" width="12" height="18" x="16" y="28" fill="#4f5d73" class="st8"/></g><g id="g164"><rect id="rect162" width="16" height="2" x="32" y="28" fill="#737373" class="st2"/></g><g id="g168"><rect id="rect166" width="16" height="2" x="32" y="32" fill="#737373" class="st2"/></g><g id="g172"><rect id="rect170" width="16" height="2" x="32" y="36" fill="#737373" class="st2"/></g><g id="g176"><rect id="rect174" width="16" height="2" x="32" y="40" fill="#737373" class="st2"/></g><g id="g180"><rect id="rect178" width="16" height="2" x="32" y="44" fill="#737373" class="st2"/></g></g></svg>